Cooperativa-Sans-Regular.ufo
<glyph name="comma" format="2">
	<advance width="180"/>
	<unicode hex="002C"/>
	<outline>
		<contour>
			<point x="59" y="-120" type="line"/>
			<point x="59" y="-120"/>
			<point x="140" y="-44"/>
			<point x="140" y="48" type="curve" smooth="yes"/>
			<point x="140" y="74"/>
			<point x="132" y="89"/>
			<point x="132" y="89" type="curve"/>
			<point x="132" y="89"/>
			<point x="118" y="97"/>
			<point x="92" y="97" type="curve" smooth="yes"/>
			<point x="66" y="97"/>
			<point x="51" y="89"/>
			<point x="51" y="89" type="curve"/>
			<point x="51" y="89"/>
			<point x="43" y="75"/>
			<point x="43" y="49" type="curve" smooth="yes"/>
			<point x="43" y="23"/>
			<point x="51" y="8"/>
			<point x="51" y="8" type="curve"/>
			<point x="51" y="8"/>
			<point x="66" y="0"/>
			<point x="98" y="0" type="curve"/>
			<point x="92" y="20" type="line"/>
			<point x="89" y="-30"/>
			<point x="40" y="-104"/>
			<point x="40" y="-104" type="curve"/>
		</contour>
	</outline>
</glyph>
<glyph name="zero" format="2">
	<advance width="645"/>
	<unicode hex="0030"/>
	<outline>
		<contour>
			<point x="325" y="-16" type="curve" smooth="yes"/>
			<point x="493" y="-16"/>
			<point x="595" y="87"/>
			<point x="595" y="375" type="curve" smooth="yes"/>
			<point x="595" y="663"/>
			<point x="493" y="766"/>
			<point x="325" y="766" type="curve" smooth="yes"/>
			<point x="157" y="766"/>
			<point x="50" y="663"/>
			<point x="50" y="375" type="curve" smooth="yes"/>
			<point x="50" y="87"/>
			<point x="157" y="-16"/>
		</contour>
		<contour>
			<point x="325" y="64" type="curve" smooth="yes"/>
			<point x="232" y="64"/>
			<point x="155" y="146"/>
			<point x="155" y="375" type="curve" smooth="yes"/>
			<point x="155" y="604"/>
			<point x="232" y="686"/>
			<point x="325" y="686" type="curve" smooth="yes"/>
			<point x="418" y="686"/>
			<point x="490" y="604"/>
			<point x="490" y="375" type="curve" smooth="yes"/>
			<point x="490" y="146"/>
			<point x="418" y="64"/>
		</contour>
	</outline>
</glyph>
<glyph name="four" format="2">
	<advance width="600"/>
	<unicode hex="0034"/>
	<outline>
		<contour>
			<point x="36" y="272" type="curve"/>
			<point x="82" y="270"/>
			<point x="140" y="269"/>
			<point x="147" y="279" type="curve" smooth="yes"/>
			<point x="168" y="309"/>
			<point x="414" y="695"/>
			<point x="414" y="694" type="curve"/>
			<point x="356" y="750" type="line"/>
			<point x="356" y="750"/>
			<point x="36" y="273"/>
		</contour>
		<contour>
			<point x="36" y="211" type="line"/>
			<point x="570" y="210" type="line"/>
			<point x="570" y="306" type="line"/>
			<point x="570" y="306"/>
			<point x="497" y="300"/>
			<point x="347" y="300" type="curve" smooth="yes"/>
			<point x="90" y="300" type="line" smooth="yes"/>
			<point x="60" y="300"/>
			<point x="42" y="276"/>
			<point x="36" y="272" type="curve"/>
		</contour>
		<contour>
			<point x="407" y="-4" type="line"/>
			<point x="457" y="0" type="line"/>
			<point x="457" y="0"/>
			<point x="450" y="137"/>
			<point x="450" y="335" type="curve" smooth="yes"/>
			<point x="450" y="415" type="line" smooth="yes"/>
			<point x="450" y="616"/>
			<point x="460" y="750"/>
			<point x="460" y="750" type="curve"/>
			<point x="356" y="750" type="line"/>
			<point x="359" y="0" type="line"/>
		</contour>
	</outline>
</glyph>
<glyph name="six" format="2">
	<advance width="600"/>
	<unicode hex="0036"/>
	<outline>
		<contour>
			<point x="299" y="-16" type="curve" smooth="yes"/>
			<point x="432" y="-16"/>
			<point x="539" y="85"/>
			<point x="539" y="235" type="curve" smooth="yes"/>
			<point x="539" y="406"/>
			<point x="437" y="495"/>
			<point x="303" y="495" type="curve" smooth="yes"/>
			<point x="140" y="495"/>
			<point x="99" y="333"/>
			<point x="99" y="333" type="curve"/>
			<point x="143" y="353" type="line"/>
			<point x="143" y="565"/>
			<point x="199" y="685"/>
			<point x="345" y="685" type="curve" smooth="yes"/>
			<point x="424" y="685"/>
			<point x="483" y="627"/>
			<point x="483" y="627" type="curve"/>
			<point x="506" y="634"/>
			<point x="530" y="673"/>
			<point x="530" y="698" type="curve"/>
			<point x="530" y="698"/>
			<point x="475" y="766"/>
			<point x="337" y="766" type="curve" smooth="yes"/>
			<point x="151" y="766"/>
			<point x="40" y="634"/>
			<point x="40" y="328" type="curve" smooth="yes"/>
			<point x="40" y="77"/>
			<point x="151" y="-16"/>
		</contour>
		<contour>
			<point x="293" y="64" type="curve" smooth="yes"/>
			<point x="198" y="64"/>
			<point x="145" y="124"/>
			<point x="145" y="242" type="curve" smooth="yes"/>
			<point x="145" y="362"/>
			<point x="206" y="415"/>
			<point x="298" y="415" type="curve" smooth="yes"/>
			<point x="376" y="415"/>
			<point x="434" y="368"/>
			<point x="434" y="235" type="curve" smooth="yes"/>
			<point x="434" y="115"/>
			<point x="361" y="64"/>
		</contour>
	</outline>
</glyph>
<glyph name="colon" format="2">
	<advance width="177"/>
	<unicode hex="003A"/>
	<outline>
		<contour>
			<point x="88" y="419" type="curve" smooth="yes"/>
			<point x="114" y="419"/>
			<point x="131" y="425"/>
			<point x="131" y="425" type="curve"/>
			<point x="131" y="425"/>
			<point x="137" y="441"/>
			<point x="137" y="467" type="curve" smooth="yes"/>
			<point x="137" y="493"/>
			<point x="131" y="510"/>
			<point x="131" y="510" type="curve"/>
			<point x="131" y="510"/>
			<point x="115" y="516"/>
			<point x="89" y="516" type="curve" smooth="yes"/>
			<point x="63" y="516"/>
			<point x="46" y="510"/>
			<point x="46" y="510" type="curve"/>
			<point x="46" y="510"/>
			<point x="40" y="494"/>
			<point x="40" y="468" type="curve" smooth="yes"/>
			<point x="40" y="442"/>
			<point x="46" y="425"/>
			<point x="46" y="425" type="curve"/>
			<point x="46" y="425"/>
			<point x="62" y="419"/>
		</contour>
		<contour>
			<point x="88" y="0" type="curve" smooth="yes"/>
			<point x="114" y="0"/>
			<point x="131" y="6"/>
			<point x="131" y="6" type="curve"/>
			<point x="131" y="6"/>
			<point x="137" y="22"/>
			<point x="137" y="48" type="curve" smooth="yes"/>
			<point x="137" y="74"/>
			<point x="131" y="91"/>
			<point x="131" y="91" type="curve"/>
			<point x="131" y="91"/>
			<point x="115" y="97"/>
			<point x="89" y="97" type="curve" smooth="yes"/>
			<point x="63" y="97"/>
			<point x="46" y="91"/>
			<point x="46" y="91" type="curve"/>
			<point x="46" y="91"/>
			<point x="40" y="75"/>
			<point x="40" y="49" type="curve" smooth="yes"/>
			<point x="40" y="23"/>
			<point x="46" y="6"/>
			<point x="46" y="6" type="curve"/>
			<point x="46" y="6"/>
			<point x="62" y="0"/>
		</contour>
	</outline>
</glyph>
<glyph name="semicolon" format="2">
	<advance width="179"/>
	<unicode hex="003B"/>
	<outline>
		<contour>
			<point x="56" y="-120" type="line"/>
			<point x="56" y="-120"/>
			<point x="137" y="-44"/>
			<point x="137" y="48" type="curve" smooth="yes"/>
			<point x="137" y="74"/>
			<point x="129" y="89"/>
			<point x="129" y="89" type="curve"/>
			<point x="129" y="89"/>
			<point x="115" y="97"/>
			<point x="89" y="97" type="curve" smooth="yes"/>
			<point x="63" y="97"/>
			<point x="48" y="89"/>
			<point x="48" y="89" type="curve"/>
			<point x="48" y="89"/>
			<point x="40" y="75"/>
			<point x="40" y="49" type="curve" smooth="yes"/>
			<point x="40" y="23"/>
			<point x="48" y="8"/>
			<point x="48" y="8" type="curve"/>
			<point x="48" y="8"/>
			<point x="63" y="0"/>
			<point x="95" y="0" type="curve"/>
			<point x="89" y="20" type="line"/>
			<point x="86" y="-30"/>
			<point x="37" y="-104"/>
			<point x="37" y="-104" type="curve"/>
		</contour>
		<contour>
			<point x="90" y="419" type="curve" smooth="yes"/>
			<point x="116" y="419"/>
			<point x="133" y="425"/>
			<point x="133" y="425" type="curve"/>
			<point x="133" y="425"/>
			<point x="139" y="441"/>
			<point x="139" y="467" type="curve" smooth="yes"/>
			<point x="139" y="493"/>
			<point x="133" y="510"/>
			<point x="133" y="510" type="curve"/>
			<point x="133" y="510"/>
			<point x="117" y="516"/>
			<point x="91" y="516" type="curve" smooth="yes"/>
			<point x="65" y="516"/>
			<point x="48" y="510"/>
			<point x="48" y="510" type="curve"/>
			<point x="48" y="510"/>
			<point x="42" y="494"/>
			<point x="42" y="468" type="curve" smooth="yes"/>
			<point x="42" y="442"/>
			<point x="48" y="425"/>
			<point x="48" y="425" type="curve"/>
			<point x="48" y="425"/>
			<point x="64" y="419"/>
		</contour>
	</outline>
</glyph>
<glyph name="A" format="2">
	<advance width="621"/>
	<unicode hex="0041"/>
	<outline>
		<contour>
			<point x="502" y="0" type="line"/>
			<point x="615" y="0" type="line"/>
			<point x="368" y="750" type="line"/>
			<point x="278" y="750" type="line"/>
		</contour>
		<contour>
			<point x="4" y="0" type="line"/>
			<point x="59" y="0" type="line"/>
			<point x="117" y="0" type="line"/>
			<point x="341" y="750" type="line"/>
			<point x="251" y="750" type="line"/>
		</contour>
		<contour>
			<point x="129" y="260" type="curve"/>
			<point x="149" y="262"/>
			<point x="306" y="262"/>
			<point x="306" y="262" type="curve"/>
			<point x="306" y="262"/>
			<point x="463" y="262"/>
			<point x="483" y="260" type="curve"/>
			<point x="485" y="308" type="line" smooth="yes"/>
			<point x="485" y="323"/>
			<point x="484" y="336"/>
			<point x="483" y="348" type="curve"/>
			<point x="483" y="348"/>
			<point x="450" y="341"/>
			<point x="372" y="341" type="curve" smooth="yes"/>
			<point x="308" y="341" type="line"/>
			<point x="221" y="341" type="line" smooth="yes"/>
			<point x="173" y="341"/>
			<point x="129" y="348"/>
			<point x="129" y="348" type="curve"/>
			<point x="128" y="336"/>
			<point x="128" y="323"/>
			<point x="128" y="308" type="curve" smooth="yes"/>
			<point x="128" y="293"/>
			<point x="128" y="277"/>
		</contour>
	</outline>
</glyph>
<glyph name="B" format="2">
	<advance width="570"/>
	<unicode hex="0042"/>
	<outline>
		<contour>
			<point x="232" y="-15" type="curve" smooth="yes"/>
			<point x="402" y="-15"/>
			<point x="530" y="56"/>
			<point x="530" y="216" type="curve" smooth="yes"/>
			<point x="530" y="358"/>
			<point x="409" y="440"/>
			<point x="211" y="440" type="curve" smooth="yes"/>
			<point x="136" y="440" type="line"/>
			<point x="136" y="364" type="line"/>
			<point x="254" y="364" type="line" smooth="yes"/>
			<point x="364" y="364"/>
			<point x="425" y="324"/>
			<point x="425" y="222" type="curve" smooth="yes"/>
			<point x="425" y="116"/>
			<point x="362" y="64"/>
			<point x="244" y="64" type="curve" smooth="yes"/>
			<point x="109" y="64" type="line"/>
			<point x="63" y="0" type="line"/>
			<point x="63" y="0"/>
			<point x="116" y="-15"/>
		</contour>
		<contour>
			<point x="63" y="0" type="curve"/>
			<point x="172" y="0" type="line"/>
			<point x="172" y="0"/>
			<point x="165" y="137"/>
			<point x="165" y="335" type="curve" smooth="yes"/>
			<point x="165" y="415" type="line" smooth="yes"/>
			<point x="165" y="616"/>
			<point x="175" y="750"/>
			<point x="175" y="750" type="curve"/>
			<point x="60" y="750" type="line"/>
			<point x="60" y="750"/>
			<point x="70" y="616"/>
			<point x="70" y="415" type="curve" smooth="yes"/>
			<point x="70" y="335" type="line" smooth="yes"/>
			<point x="70" y="137"/>
			<point x="63" y="0"/>
		</contour>
		<contour>
			<point x="192" y="364" type="curve" smooth="yes"/>
			<point x="265" y="364"/>
			<point x="479" y="375"/>
			<point x="479" y="556" type="curve" smooth="yes"/>
			<point x="479" y="687"/>
			<point x="381" y="766"/>
			<point x="217" y="766" type="curve" smooth="yes"/>
			<point x="110" y="766"/>
			<point x="60" y="750"/>
			<point x="60" y="750" type="curve"/>
			<point x="126" y="686" type="line"/>
			<point x="212" y="686" type="line" smooth="yes"/>
			<point x="327" y="686"/>
			<point x="374" y="648"/>
			<point x="374" y="556" type="curve" smooth="yes"/>
			<point x="374" y="468"/>
			<point x="314" y="440"/>
			<point x="230" y="440" type="curve" smooth="yes"/>
			<point x="125" y="440" type="line"/>
			<point x="96" y="408" type="line"/>
			<point x="96" y="408"/>
			<point x="120" y="364"/>
		</contour>
	</outline>
</glyph>
<glyph name="C" format="2">
	<advance width="603"/>
	<unicode hex="0043"/>
	<outline>
		<contour>
			<point x="366" y="-15" type="curve" smooth="yes"/>
			<point x="524" y="-15"/>
			<point x="573" y="43"/>
			<point x="573" y="43" type="curve"/>
			<point x="573" y="108"/>
			<point x="544" y="129"/>
			<point x="544" y="129" type="curve"/>
			<point x="544" y="129"/>
			<point x="485" y="78"/>
			<point x="362" y="78" type="curve" smooth="yes"/>
			<point x="264" y="78"/>
			<point x="165" y="155"/>
			<point x="165" y="375" type="curve" smooth="yes"/>
			<point x="165" y="595"/>
			<point x="278" y="683"/>
			<point x="388" y="683" type="curve" smooth="yes"/>
			<point x="485" y="683"/>
			<point x="533" y="639"/>
			<point x="533" y="639" type="curve"/>
			<point x="533" y="639"/>
			<point x="546" y="665"/>
			<point x="546" y="701" type="curve" smooth="yes"/>
			<point x="546" y="725"/>
			<point x="540" y="735"/>
			<point x="540" y="735" type="curve"/>
			<point x="540" y="735"/>
			<point x="481" y="766"/>
			<point x="388" y="766" type="curve" smooth="yes"/>
			<point x="281" y="766"/>
			<point x="60" y="713"/>
			<point x="60" y="375" type="curve" smooth="yes"/>
			<point x="60" y="37"/>
			<point x="253" y="-15"/>
		</contour>
	</outline>
</glyph>
<glyph name="F" format="2">
	<advance width="482"/>
	<unicode hex="0046"/>
	<outline>
		<contour>
			<point x="63" y="0" type="curve"/>
			<point x="181" y="0" type="line"/>
			<point x="181" y="0"/>
			<point x="165" y="137"/>
			<point x="165" y="335" type="curve" smooth="yes"/>
			<point x="165" y="415" type="line" smooth="yes"/>
			<point x="165" y="616"/>
			<point x="175" y="750"/>
			<point x="175" y="750" type="curve"/>
			<point x="60" y="750" type="line"/>
			<point x="60" y="750"/>
			<point x="70" y="616"/>
			<point x="70" y="415" type="curve" smooth="yes"/>
			<point x="70" y="335" type="line" smooth="yes"/>
			<point x="70" y="137"/>
			<point x="63" y="0"/>
		</contour>
		<contour>
			<point x="389" y="338" type="curve"/>
			<point x="394" y="362"/>
			<point x="395" y="404"/>
			<point x="389" y="426" type="curve"/>
			<point x="389" y="426"/>
			<point x="319" y="420"/>
			<point x="211" y="420" type="curve" smooth="yes"/>
			<point x="130" y="420" type="line"/>
			<point x="130" y="343" type="line"/>
			<point x="216" y="343" type="line" smooth="yes"/>
			<point x="342" y="343"/>
			<point x="389" y="338"/>
		</contour>
		<contour>
			<point x="442" y="652" type="curve"/>
			<point x="448" y="671"/>
			<point x="448" y="730"/>
			<point x="440" y="754" type="curve"/>
			<point x="440" y="754"/>
			<point x="366" y="750"/>
			<point x="285" y="750" type="curve" smooth="yes"/>
			<point x="128" y="750" type="line"/>
			<point x="143" y="672" type="line"/>
			<point x="246" y="672" type="line" smooth="yes"/>
			<point x="403" y="672"/>
			<point x="442" y="652"/>
		</contour>
	</outline>
</glyph>
<glyph name="G" format="2">
	<advance width="725"/>
	<unicode hex="0047"/>
	<outline>
		<contour>
			<point x="370" y="-16" type="curve" smooth="yes"/>
			<point x="528" y="-16"/>
			<point x="665" y="84"/>
			<point x="665" y="329" type="curve" smooth="yes"/>
			<point x="665" y="374"/>
			<point x="655" y="396"/>
			<point x="655" y="396" type="curve"/>
			<point x="382" y="396" type="line"/>
			<point x="352" y="385"/>
			<point x="358" y="318"/>
			<point x="378" y="294" type="curve"/>
			<point x="378" y="294"/>
			<point x="426" y="315"/>
			<point x="499" y="315" type="curve" smooth="yes"/>
			<point x="586" y="315" type="line"/>
			<point x="570" y="336" type="line"/>
			<point x="570" y="125"/>
			<point x="473" y="64"/>
			<point x="370" y="64" type="curve" smooth="yes"/>
			<point x="267" y="64"/>
			<point x="170" y="126"/>
			<point x="170" y="375" type="curve" smooth="yes"/>
			<point x="170" y="624"/>
			<point x="269" y="686"/>
			<point x="392" y="686" type="curve" smooth="yes"/>
			<point x="498" y="686"/>
			<point x="547" y="636"/>
			<point x="569" y="577" type="curve"/>
			<point x="610" y="591"/>
			<point x="631" y="631"/>
			<point x="631" y="663" type="curve" smooth="yes"/>
			<point x="631" y="700"/>
			<point x="541" y="766"/>
			<point x="403" y="766" type="curve" smooth="yes"/>
			<point x="225" y="766"/>
			<point x="65" y="673"/>
			<point x="65" y="375" type="curve" smooth="yes"/>
			<point x="65" y="77"/>
			<point x="212" y="-16"/>
		</contour>
	</outline>
</glyph>
<glyph name="I" format="2">
	<advance width="242"/>
	<unicode hex="0049"/>
	<outline>
		<contour>
			<point x="61" y="0" type="curve"/>
			<point x="170" y="0" type="line"/>
			<point x="170" y="0"/>
			<point x="163" y="137"/>
			<point x="163" y="335" type="curve" smooth="yes"/>
			<point x="163" y="415" type="line" smooth="yes"/>
			<point x="163" y="616"/>
			<point x="173" y="750"/>
			<point x="173" y="750" type="curve"/>
			<point x="58" y="750" type="line"/>
			<point x="58" y="750"/>
			<point x="68" y="616"/>
			<point x="68" y="415" type="curve" smooth="yes"/>
			<point x="68" y="335" type="line" smooth="yes"/>
			<point x="68" y="137"/>
			<point x="61" y="0"/>
		</contour>
	</outline>
</glyph>
<glyph name="J" format="2">
	<advance width="281"/>
	<unicode hex="004A"/>
	<outline>
		<contour>
			<point x="115" y="-209" type="curve"/>
			<point x="163" y="-169"/>
			<point x="200" y="-88"/>
			<point x="200" y="36" type="curve" smooth="yes"/>
			<point x="200" y="282" type="line"/>
			<point x="206" y="750" type="line"/>
			<point x="99" y="750" type="line"/>
			<point x="106" y="278" type="line"/>
			<point x="106" y="72" type="line" smooth="yes"/>
			<point x="106" y="-53"/>
			<point x="71" y="-108"/>
			<point x="30" y="-156" type="curve"/>
			<point x="47" y="-174"/>
			<point x="86" y="-203"/>
		</contour>
	</outline>
</glyph>
<glyph name="K" format="2">
	<advance width="624"/>
	<unicode hex="004B"/>
	<outline>
		<contour>
			<point x="450" y="0" type="curve"/>
			<point x="508" y="0" type="line"/>
			<point x="581" y="0" type="line"/>
			<point x="581" y="0"/>
			<point x="403" y="289"/>
			<point x="316" y="417" type="curve"/>
			<point x="594" y="751" type="line"/>
			<point x="594" y="751"/>
			<point x="566" y="754"/>
			<point x="530" y="754" type="curve" smooth="yes"/>
			<point x="500" y="754"/>
			<point x="469" y="751"/>
			<point x="469" y="751" type="curve"/>
			<point x="430" y="702"/>
			<point x="316" y="555"/>
			<point x="237" y="466" type="curve"/>
			<point x="141" y="466" type="line"/>
			<point x="141" y="375" type="line"/>
			<point x="240" y="375" type="line"/>
			<point x="311" y="271"/>
			<point x="450" y="0"/>
		</contour>
		<contour>
			<point x="58" y="0" type="curve"/>
			<point x="112" y="0" type="line"/>
			<point x="170" y="0" type="line"/>
			<point x="170" y="0"/>
			<point x="153" y="141"/>
			<point x="153" y="296" type="curve" smooth="yes"/>
			<point x="153" y="388"/>
			<point x="154" y="440"/>
			<point x="154" y="532" type="curve" smooth="yes"/>
			<point x="159" y="752" type="line"/>
			<point x="159" y="752"/>
			<point x="139" y="755"/>
			<point x="109" y="755" type="curve" smooth="yes"/>
			<point x="79" y="755"/>
			<point x="59" y="752"/>
			<point x="59" y="752" type="curve"/>
			<point x="62" y="689"/>
			<point x="63" y="646"/>
			<point x="63" y="526" type="curve" smooth="yes"/>
			<point x="63" y="286" type="line" smooth="yes"/>
			<point x="63" y="160"/>
			<point x="58" y="0"/>
		</contour>
	</outline>
</glyph>
<glyph name="L" format="2">
	<advance width="482"/>
	<unicode hex="004C"/>
	<outline>
		<contour>
			<point x="63" y="0" type="curve"/>
			<point x="172" y="0" type="line"/>
			<point x="172" y="0"/>
			<point x="165" y="137"/>
			<point x="165" y="335" type="curve" smooth="yes"/>
			<point x="165" y="415" type="line" smooth="yes"/>
			<point x="165" y="616"/>
			<point x="175" y="750"/>
			<point x="175" y="750" type="curve"/>
			<point x="60" y="750" type="line"/>
			<point x="60" y="750"/>
			<point x="70" y="616"/>
			<point x="70" y="415" type="curve" smooth="yes"/>
			<point x="70" y="335" type="line" smooth="yes"/>
			<point x="70" y="137"/>
			<point x="63" y="0"/>
		</contour>
		<contour>
			<point x="452" y="-4" type="curve"/>
			<point x="460" y="20"/>
			<point x="460" y="79"/>
			<point x="454" y="98" type="curve"/>
			<point x="454" y="98"/>
			<point x="415" y="78"/>
			<point x="258" y="78" type="curve" smooth="yes"/>
			<point x="155" y="78" type="line"/>
			<point x="140" y="0" type="line"/>
			<point x="297" y="0" type="line" smooth="yes"/>
			<point x="378" y="0"/>
			<point x="452" y="-4"/>
		</contour>
	</outline>
</glyph>
<glyph name="N" format="2">
	<advance width="629"/>
	<unicode hex="004E"/>
	<outline>
		<contour>
			<point x="472" y="0" type="line"/>
			<point x="576" y="0" type="line"/>
			<point x="508" y="143" type="line"/>
			<point x="484" y="178" type="line"/>
			<point x="420" y="324" type="line"/>
			<point x="174" y="750" type="line"/>
			<point x="78" y="750" type="line"/>
			<point x="118" y="665" type="line"/>
			<point x="145" y="618" type="line"/>
			<point x="206" y="478" type="line"/>
		</contour>
		<contour>
			<point x="53" y="0" type="curve"/>
			<point x="152" y="0" type="line"/>
			<point x="152" y="0"/>
			<point x="145" y="137"/>
			<point x="145" y="335" type="curve" smooth="yes"/>
			<point x="145" y="750" type="line"/>
			<point x="50" y="750" type="line"/>
			<point x="50" y="750"/>
			<point x="60" y="616"/>
			<point x="60" y="415" type="curve" smooth="yes"/>
			<point x="60" y="335" type="line" smooth="yes"/>
			<point x="60" y="137"/>
			<point x="53" y="0"/>
		</contour>
		<contour>
			<point x="484" y="0" type="line"/>
			<point x="576" y="0" type="line"/>
			<point x="576" y="0"/>
			<point x="569" y="137"/>
			<point x="569" y="335" type="curve" smooth="yes"/>
			<point x="569" y="415" type="line" smooth="yes"/>
			<point x="569" y="616"/>
			<point x="579" y="750"/>
			<point x="579" y="750" type="curve"/>
			<point x="474" y="750" type="line"/>
			<point x="474" y="750"/>
			<point x="484" y="616"/>
			<point x="484" y="415" type="curve" smooth="yes"/>
		</contour>
	</outline>
</glyph>
<glyph name="O" format="2">
	<advance width="705"/>
	<unicode hex="004F"/>
	<outline>
		<contour>
			<point x="355" y="-16" type="curve" smooth="yes"/>
			<point x="513" y="-16"/>
			<point x="655" y="77"/>
			<point x="655" y="375" type="curve" smooth="yes"/>
			<point x="655" y="673"/>
			<point x="513" y="766"/>
			<point x="355" y="766" type="curve" smooth="yes"/>
			<point x="197" y="766"/>
			<point x="50" y="673"/>
			<point x="50" y="375" type="curve" smooth="yes"/>
			<point x="50" y="77"/>
			<point x="197" y="-16"/>
		</contour>
		<contour>
			<point x="355" y="64" type="curve" smooth="yes"/>
			<point x="252" y="64"/>
			<point x="155" y="136"/>
			<point x="155" y="375" type="curve" smooth="yes"/>
			<point x="155" y="614"/>
			<point x="252" y="686"/>
			<point x="355" y="686" type="curve" smooth="yes"/>
			<point x="458" y="686"/>
			<point x="550" y="614"/>
			<point x="550" y="375" type="curve" smooth="yes"/>
			<point x="550" y="136"/>
			<point x="458" y="64"/>
		</contour>
	</outline>
</glyph>
<glyph name="P" format="2">
	<advance width="570"/>
	<unicode hex="0050"/>
	<outline>
		<contour>
			<point x="239" y="285" type="curve" smooth="yes"/>
			<point x="416" y="285"/>
			<point x="520" y="382"/>
			<point x="520" y="524" type="curve" smooth="yes"/>
			<point x="520" y="684"/>
			<point x="396" y="765"/>
			<point x="217" y="765" type="curve" smooth="yes"/>
			<point x="101" y="765"/>
			<point x="58" y="750"/>
			<point x="58" y="750" type="curve"/>
			<point x="104" y="686" type="line"/>
			<point x="212" y="686" type="line" smooth="yes"/>
			<point x="341" y="686"/>
			<point x="415" y="624"/>
			<point x="415" y="518" type="curve" smooth="yes"/>
			<point x="415" y="416"/>
			<point x="332" y="361"/>
			<point x="234" y="361" type="curve" smooth="yes"/>
			<point x="186" y="361"/>
			<point x="131" y="381"/>
			<point x="131" y="381" type="curve"/>
			<point x="131" y="305" type="line"/>
			<point x="131" y="305"/>
			<point x="148" y="285"/>
		</contour>
		<contour>
			<point x="61" y="0" type="curve"/>
			<point x="170" y="0" type="line"/>
			<point x="170" y="0"/>
			<point x="163" y="137"/>
			<point x="163" y="335" type="curve" smooth="yes"/>
			<point x="163" y="415" type="line" smooth="yes"/>
			<point x="163" y="616"/>
			<point x="173" y="750"/>
			<point x="173" y="750" type="curve"/>
			<point x="58" y="750" type="line"/>
			<point x="58" y="750"/>
			<point x="68" y="616"/>
			<point x="68" y="415" type="curve" smooth="yes"/>
			<point x="68" y="335" type="line" smooth="yes"/>
			<point x="68" y="137"/>
			<point x="61" y="0"/>
		</contour>
	</outline>
</glyph>
<glyph name="R" format="2">
	<advance width="567"/>
	<unicode hex="0052"/>
	<outline>
		<contour>
			<point x="214" y="300" type="line"/>
			<point x="221" y="300" type="line" smooth="yes"/>
			<point x="419" y="300"/>
			<point x="525" y="413"/>
			<point x="525" y="538" type="curve" smooth="yes"/>
			<point x="525" y="695"/>
			<point x="402" y="765"/>
			<point x="232" y="765" type="curve" smooth="yes"/>
			<point x="126" y="765"/>
			<point x="58" y="750"/>
			<point x="58" y="750" type="curve"/>
			<point x="104" y="686" type="line"/>
			<point x="244" y="686" type="line" smooth="yes"/>
			<point x="362" y="686"/>
			<point x="420" y="626"/>
			<point x="420" y="538" type="curve" smooth="yes"/>
			<point x="420" y="458"/>
			<point x="371" y="369"/>
			<point x="261" y="369" type="curve" smooth="yes"/>
			<point x="236" y="369" type="line"/>
		</contour>
		<contour>
			<point x="61" y="0" type="curve"/>
			<point x="170" y="0" type="line"/>
			<point x="170" y="0"/>
			<point x="163" y="137"/>
			<point x="163" y="335" type="curve" smooth="yes"/>
			<point x="163" y="415" type="line" smooth="yes"/>
			<point x="163" y="615"/>
			<point x="173" y="750"/>
			<point x="173" y="750" type="curve"/>
			<point x="58" y="750" type="line"/>
			<point x="58" y="750"/>
			<point x="68" y="615"/>
			<point x="68" y="415" type="curve" smooth="yes"/>
			<point x="68" y="335" type="line" smooth="yes"/>
			<point x="68" y="137"/>
			<point x="61" y="0"/>
		</contour>
		<contour>
			<point x="480" y="-17" type="curve"/>
			<point x="511" y="0"/>
			<point x="533" y="31"/>
			<point x="542" y="63" type="curve"/>
			<point x="542" y="63"/>
			<point x="475" y="66"/>
			<point x="363" y="244" type="curve" smooth="yes"/>
			<point x="290" y="360" type="line"/>
			<point x="214" y="300" type="line"/>
			<point x="303" y="166" type="line" smooth="yes"/>
			<point x="419" y="-9"/>
			<point x="480" y="-17"/>
		</contour>
	</outline>
</glyph>
<glyph name="S" format="2">
	<advance width="600"/>
	<unicode hex="0053"/>
	<outline>
		<contour>
			<point x="291" y="-16" type="curve" smooth="yes"/>
			<point x="469" y="-16"/>
			<point x="567" y="73"/>
			<point x="567" y="202" type="curve" smooth="yes"/>
			<point x="567" y="323"/>
			<point x="442" y="388"/>
			<point x="339" y="437" type="curve" smooth="yes"/>
			<point x="259" y="475"/>
			<point x="168" y="521"/>
			<point x="168" y="573" type="curve" smooth="yes"/>
			<point x="168" y="632"/>
			<point x="228" y="668"/>
			<point x="291" y="668" type="curve" smooth="yes"/>
			<point x="428" y="668"/>
			<point x="489" y="614"/>
			<point x="489" y="614" type="curve"/>
			<point x="489" y="614"/>
			<point x="507" y="625"/>
			<point x="507" y="664" type="curve" smooth="yes"/>
			<point x="507" y="697"/>
			<point x="500" y="712"/>
			<point x="500" y="712" type="curve"/>
			<point x="500" y="712"/>
			<point x="423" y="766"/>
			<point x="291" y="766" type="curve" smooth="yes"/>
			<point x="148" y="766"/>
			<point x="54" y="694"/>
			<point x="54" y="554" type="curve" smooth="yes"/>
			<point x="54" y="436"/>
			<point x="186" y="391"/>
			<point x="291" y="339" type="curve" smooth="yes"/>
			<point x="369" y="300"/>
			<point x="453" y="243"/>
			<point x="453" y="178" type="curve" smooth="yes"/>
			<point x="453" y="118"/>
			<point x="369" y="82"/>
			<point x="291" y="82" type="curve" smooth="yes"/>
			<point x="151" y="82"/>
			<point x="60" y="164"/>
			<point x="60" y="164" type="curve"/>
			<point x="60" y="164"/>
			<point x="42" y="154"/>
			<point x="42" y="105" type="curve" smooth="yes"/>
			<point x="42" y="73"/>
			<point x="49" y="59"/>
			<point x="49" y="59" type="curve"/>
			<point x="49" y="59"/>
			<point x="144" y="-16"/>
		</contour>
	</outline>
</glyph>
<glyph name="T" format="2">
	<advance width="579"/>
	<unicode hex="0054"/>
	<outline>
		<contour>
			<point x="236" y="-1" type="curve"/>
			<point x="345" y="-1" type="line"/>
			<point x="345" y="-1"/>
			<point x="338" y="137"/>
			<point x="338" y="335" type="curve" smooth="yes"/>
			<point x="338" y="415" type="line" smooth="yes"/>
			<point x="338" y="615"/>
			<point x="348" y="750"/>
			<point x="348" y="750" type="curve"/>
			<point x="233" y="750" type="line"/>
			<point x="233" y="750"/>
			<point x="243" y="615"/>
			<point x="243" y="415" type="curve" smooth="yes"/>
			<point x="243" y="335" type="line" smooth="yes"/>
			<point x="243" y="137"/>
			<point x="236" y="-1"/>
		</contour>
		<contour>
			<point x="30" y="664" type="curve"/>
			<point x="81" y="671"/>
			<point x="154" y="675"/>
			<point x="290" y="675" type="curve" smooth="yes"/>
			<point x="426" y="675"/>
			<point x="498" y="671"/>
			<point x="549" y="664" type="curve"/>
			<point x="551" y="678"/>
			<point x="551" y="693"/>
			<point x="551" y="708" type="curve" smooth="yes"/>
			<point x="551" y="724"/>
			<point x="551" y="740"/>
			<point x="549" y="757" type="curve"/>
			<point x="482" y="752"/>
			<point x="420" y="750"/>
			<point x="290" y="750" type="curve" smooth="yes"/>
			<point x="160" y="750"/>
			<point x="97" y="752"/>
			<point x="30" y="757" type="curve"/>
			<point x="28" y="740"/>
			<point x="28" y="724"/>
			<point x="28" y="708" type="curve" smooth="yes"/>
			<point x="28" y="693"/>
			<point x="28" y="678"/>
		</contour>
	</outline>
</glyph>
<glyph name="V" format="2">
	<advance width="622"/>
	<unicode hex="0056"/>
	<outline>
		<contour>
			<point x="274" y="0" type="line"/>
			<point x="377" y="0" type="line"/>
			<point x="612" y="750" type="line"/>
			<point x="612" y="750"/>
			<point x="599" y="760"/>
			<point x="563" y="760" type="curve" smooth="yes"/>
			<point x="525" y="760"/>
			<point x="504" y="750"/>
			<point x="504" y="750" type="curve"/>
			<point x="391" y="375" type="line"/>
			<point x="311" y="67" type="line"/>
			<point x="280" y="121" type="line"/>
		</contour>
		<contour>
			<point x="245" y="0" type="line"/>
			<point x="348" y="0" type="line"/>
			<point x="342" y="121" type="line"/>
			<point x="311" y="67" type="line"/>
			<point x="231" y="375" type="line"/>
			<point x="118" y="750" type="line"/>
			<point x="118" y="750"/>
			<point x="97" y="760"/>
			<point x="59" y="760" type="curve" smooth="yes"/>
			<point x="23" y="760"/>
			<point x="10" y="750"/>
			<point x="10" y="750" type="curve"/>
		</contour>
	</outline>
</glyph>
<glyph name="W" format="2">
	<advance width="1048"/>
	<unicode hex="0057"/>
	<outline>
		<contour>
			<point x="264" y="0" type="line"/>
			<point x="354" y="0" type="line"/>
			<point x="524" y="632" type="line"/>
			<point x="693" y="0" type="line"/>
			<point x="784" y="0" type="line"/>
			<point x="580" y="750" type="line"/>
			<point x="580" y="750"/>
			<point x="554" y="759"/>
			<point x="524" y="759" type="curve" smooth="yes"/>
			<point x="494" y="759"/>
			<point x="468" y="750"/>
			<point x="468" y="750" type="curve"/>
		</contour>
		<contour>
			<point x="264" y="0" type="move"/>
			<point x="354" y="0" type="line"/>
		</contour>
		<contour>
			<point x="237" y="0" type="line"/>
			<point x="327" y="0" type="line"/>
			<point x="123" y="750" type="line"/>
			<point x="123" y="750"/>
			<point x="104" y="760"/>
			<point x="66" y="760" type="curve" smooth="yes"/>
			<point x="35" y="760"/>
			<point x="10" y="750"/>
			<point x="10" y="750" type="curve"/>
		</contour>
		<contour>
			<point x="721" y="0" type="line"/>
			<point x="811" y="0" type="line"/>
			<point x="1038" y="750" type="line"/>
			<point x="1038" y="750"/>
			<point x="1013" y="760"/>
			<point x="982" y="760" type="curve" smooth="yes"/>
			<point x="944" y="760"/>
			<point x="925" y="750"/>
			<point x="925" y="750" type="curve"/>
		</contour>
	</outline>
</glyph>
<glyph name="X" format="2">
	<advance width="658"/>
	<unicode hex="0058"/>
	<outline>
		<contour>
			<point x="110" y="0" type="curve" smooth="yes"/>
			<point x="162" y="0"/>
			<point x="160" y="3"/>
			<point x="160" y="3" type="curve"/>
			<point x="378" y="393" type="line"/>
			<point x="247" y="393" type="line"/>
			<point x="247" y="393"/>
			<point x="209" y="324"/>
			<point x="131" y="177" type="curve" smooth="yes"/>
			<point x="52" y="31"/>
			<point x="30" y="3"/>
			<point x="30" y="3" type="curve"/>
			<point x="30" y="3"/>
			<point x="66" y="0"/>
		</contour>
		<contour>
			<point x="564" y="0" type="curve" smooth="yes"/>
			<point x="606" y="0"/>
			<point x="628" y="3"/>
			<point x="628" y="3" type="curve"/>
			<point x="631" y="3"/>
			<point x="606" y="35"/>
			<point x="528" y="181" type="curve" smooth="yes"/>
			<point x="450" y="329"/>
			<point x="414" y="393"/>
			<point x="414" y="393" type="curve"/>
			<point x="285" y="393" type="line"/>
			<point x="501" y="3" type="line"/>
			<point x="501" y="3"/>
			<point x="499" y="0"/>
		</contour>
		<contour>
			<point x="247" y="393" type="curve"/>
			<point x="361" y="393" type="line"/>
			<point x="178" y="741" type="line"/>
			<point x="178" y="741"/>
			<point x="179" y="750"/>
			<point x="122" y="750" type="curve" smooth="yes"/>
			<point x="73" y="750"/>
			<point x="47" y="741"/>
			<point x="47" y="741" type="curve"/>
			<point x="47" y="741"/>
			<point x="64" y="713"/>
			<point x="149" y="566" type="curve" smooth="yes"/>
			<point x="233" y="421"/>
			<point x="247" y="393"/>
		</contour>
		<contour>
			<point x="301" y="393" type="line"/>
			<point x="414" y="393" type="line"/>
			<point x="414" y="393"/>
			<point x="429" y="423"/>
			<point x="513" y="566" type="curve" smooth="yes"/>
			<point x="598" y="711"/>
			<point x="615" y="750"/>
			<point x="615" y="741" type="curve"/>
			<point x="615" y="741"/>
			<point x="598" y="750"/>
			<point x="554" y="750" type="curve" smooth="yes"/>
			<point x="482" y="750"/>
			<point x="484" y="741"/>
			<point x="484" y="741" type="curve"/>
		</contour>
	</outline>
</glyph>
<glyph name="Z" format="2">
	<advance width="562"/>
	<unicode hex="005A"/>
	<outline>
		<contour>
			<point x="521" y="-4" type="curve"/>
			<point x="529" y="20"/>
			<point x="529" y="79"/>
			<point x="523" y="98" type="curve"/>
			<point x="523" y="98"/>
			<point x="447" y="78"/>
			<point x="314" y="78" type="curve" smooth="yes"/>
			<point x="123" y="78" type="line"/>
			<point x="129" y="14" type="line"/>
			<point x="155" y="56" type="line"/>
			<point x="240" y="208" type="line"/>
			<point x="526" y="734" type="line"/>
			<point x="526" y="750" type="line"/>
			<point x="220" y="750" type="line" smooth="yes"/>
			<point x="160" y="750"/>
			<point x="60" y="754"/>
			<point x="60" y="754" type="curve"/>
			<point x="52" y="730"/>
			<point x="52" y="671"/>
			<point x="58" y="652" type="curve"/>
			<point x="58" y="652"/>
			<point x="151" y="672"/>
			<point x="285" y="672" type="curve" smooth="yes"/>
			<point x="430" y="672" type="line"/>
			<point x="418" y="728" type="line"/>
			<point x="398" y="694" type="line"/>
			<point x="308" y="522" type="line"/>
			<point x="35" y="18" type="line"/>
			<point x="35" y="0" type="line"/>
			<point x="366" y="0" type="line" smooth="yes"/>
			<point x="410" y="0"/>
			<point x="521" y="-4"/>
		</contour>
	</outline>
</glyph>
<glyph name="b" format="2">
	<advance width="614"/>
	<unicode hex="0062"/>
	<outline>
		<contour>
			<point x="320" y="-16" type="curve" smooth="yes"/>
			<point x="454" y="-16"/>
			<point x="549" y="104"/>
			<point x="549" y="275" type="curve" smooth="yes"/>
			<point x="549" y="484"/>
			<point x="441" y="566"/>
			<point x="320" y="566" type="curve" smooth="yes"/>
			<point x="171" y="566"/>
			<point x="118" y="416"/>
			<point x="118" y="416" type="curve"/>
			<point x="174" y="335" type="line"/>
			<point x="174" y="428"/>
			<point x="233" y="485"/>
			<point x="300" y="485" type="curve" smooth="yes"/>
			<point x="386" y="485"/>
			<point x="448" y="430"/>
			<point x="448" y="275" type="curve" smooth="yes"/>
			<point x="448" y="151"/>
			<point x="385" y="67"/>
			<point x="298" y="67" type="curve" smooth="yes"/>
			<point x="213" y="67"/>
			<point x="174" y="153"/>
			<point x="174" y="252" type="curve"/>
			<point x="145" y="87" type="line"/>
			<point x="145" y="87"/>
			<point x="202" y="-16"/>
		</contour>
		<contour>
			<point x="82" y="0" type="curve"/>
			<point x="133" y="0" type="line"/>
			<point x="185" y="82" type="line"/>
			<point x="174" y="82" type="line"/>
			<point x="174" y="517" type="line" smooth="yes"/>
			<point x="174" y="741"/>
			<point x="187" y="797"/>
			<point x="187" y="797" type="curve"/>
			<point x="187" y="797"/>
			<point x="159" y="800"/>
			<point x="129" y="800" type="curve" smooth="yes"/>
			<point x="99" y="800"/>
			<point x="79" y="797"/>
			<point x="79" y="797" type="curve"/>
			<point x="79" y="797"/>
			<point x="84" y="706"/>
			<point x="84" y="436" type="curve" smooth="yes"/>
			<point x="84" y="288" type="line" smooth="yes"/>
			<point x="84" y="30"/>
			<point x="82" y="0"/>
		</contour>
	</outline>
</glyph>
<glyph name="c" format="2">
	<advance width="497"/>
	<unicode hex="0063"/>
	<outline>
		<contour>
			<point x="292" y="-15" type="curve" smooth="yes"/>
			<point x="404" y="-15"/>
			<point x="468" y="26"/>
			<point x="468" y="26" type="curve"/>
			<point x="468" y="80"/>
			<point x="436" y="113"/>
			<point x="436" y="113" type="curve"/>
			<point x="436" y="113"/>
			<point x="360" y="63"/>
			<point x="288" y="63" type="curve" smooth="yes"/>
			<point x="216" y="63"/>
			<point x="139" y="107"/>
			<point x="139" y="275" type="curve" smooth="yes"/>
			<point x="139" y="443"/>
			<point x="228" y="480"/>
			<point x="298" y="480" type="curve" smooth="yes"/>
			<point x="385" y="480"/>
			<point x="410" y="452"/>
			<point x="410" y="452" type="curve"/>
			<point x="410" y="452"/>
			<point x="423" y="478"/>
			<point x="423" y="514" type="curve" smooth="yes"/>
			<point x="423" y="538"/>
			<point x="417" y="548"/>
			<point x="417" y="548" type="curve"/>
			<point x="417" y="548"/>
			<point x="381" y="566"/>
			<point x="298" y="566" type="curve" smooth="yes"/>
			<point x="178" y="566"/>
			<point x="40" y="499"/>
			<point x="40" y="275" type="curve" smooth="yes"/>
			<point x="40" y="61"/>
			<point x="151" y="-15"/>
		</contour>
	</outline>
</glyph>
<glyph name="i" format="2">
	<advance width="248"/>
	<unicode hex="0069"/>
	<outline>
		<contour>
			<point x="124" y="-2" type="curve" smooth="yes"/>
			<point x="154" y="-2"/>
			<point x="174" y="0"/>
			<point x="174" y="0" type="curve"/>
			<point x="171" y="63"/>
			<point x="169" y="154"/>
			<point x="169" y="273" type="curve" smooth="yes"/>
			<point x="169" y="279" type="line"/>
			<point x="174" y="553" type="line"/>
			<point x="174" y="553"/>
			<point x="154" y="555"/>
			<point x="124" y="555" type="curve" smooth="yes"/>
			<point x="94" y="555"/>
			<point x="74" y="553"/>
			<point x="74" y="553" type="curve"/>
			<point x="77" y="490"/>
			<point x="79" y="398"/>
			<point x="79" y="279" type="curve" smooth="yes"/>
			<point x="79" y="273" type="line"/>
			<point x="74" y="0" type="line"/>
			<point x="74" y="0"/>
			<point x="94" y="-2"/>
		</contour>
		<contour>
			<point x="123" y="652" type="curve" smooth="yes"/>
			<point x="157" y="652"/>
			<point x="186" y="680"/>
			<point x="186" y="714" type="curve" smooth="yes"/>
			<point x="186" y="748"/>
			<point x="157" y="776"/>
			<point x="123" y="776" type="curve" smooth="yes"/>
			<point x="89" y="776"/>
			<point x="62" y="748"/>
			<point x="62" y="714" type="curve" smooth="yes"/>
			<point x="62" y="680"/>
			<point x="89" y="652"/>
		</contour>
	</outline>
</glyph>
<glyph name="j" format="2">
	<advance width="266"/>
	<unicode hex="006A"/>
	<outline>
		<contour>
			<point x="106" y="-206" type="curve"/>
			<point x="154" y="-166"/>
			<point x="188" y="-88"/>
			<point x="188" y="36" type="curve" smooth="yes"/>
			<point x="188" y="282" type="line"/>
			<point x="194" y="550" type="line"/>
			<point x="87" y="550" type="line"/>
			<point x="95" y="278" type="line"/>
			<point x="95" y="72" type="line" smooth="yes"/>
			<point x="95" y="-53"/>
			<point x="58" y="-108"/>
			<point x="17" y="-156" type="curve"/>
			<point x="34" y="-174"/>
			<point x="77" y="-200"/>
		</contour>
		<contour>
			<point x="141" y="652" type="curve" smooth="yes"/>
			<point x="175" y="652"/>
			<point x="204" y="680"/>
			<point x="204" y="714" type="curve" smooth="yes"/>
			<point x="204" y="748"/>
			<point x="175" y="776"/>
			<point x="141" y="776" type="curve" smooth="yes"/>
			<point x="107" y="776"/>
			<point x="80" y="748"/>
			<point x="80" y="714" type="curve" smooth="yes"/>
			<point x="80" y="680"/>
			<point x="107" y="652"/>
		</contour>
	</outline>
</glyph>
<glyph name="k" format="2">
	<advance width="572"/>
	<unicode hex="006B"/>
	<outline>
		<contour>
			<point x="404" y="0" type="curve"/>
			<point x="462" y="0" type="line"/>
			<point x="535" y="0" type="line"/>
			<point x="535" y="0"/>
			<point x="416" y="188"/>
			<point x="329" y="316" type="curve"/>
			<point x="542" y="557" type="line"/>
			<point x="542" y="557"/>
			<point x="514" y="561"/>
			<point x="478" y="561" type="curve" smooth="yes"/>
			<point x="448" y="561"/>
			<point x="417" y="557"/>
			<point x="417" y="557" type="curve"/>
			<point x="378" y="508"/>
			<point x="325" y="447"/>
			<point x="256" y="363" type="curve"/>
			<point x="157" y="363" type="line"/>
			<point x="157" y="273" type="line"/>
			<point x="256" y="273" type="line"/>
			<point x="327" y="169"/>
			<point x="404" y="0"/>
		</contour>
		<contour>
			<point x="79" y="0" type="curve"/>
			<point x="135" y="0" type="line"/>
			<point x="191" y="0" type="line"/>
			<point x="191" y="0"/>
			<point x="174" y="145"/>
			<point x="174" y="300" type="curve" smooth="yes"/>
			<point x="174" y="392"/>
			<point x="175" y="434"/>
			<point x="175" y="526" type="curve" smooth="yes"/>
			<point x="180" y="751" type="line"/>
			<point x="180" y="751"/>
			<point x="160" y="753"/>
			<point x="130" y="753" type="curve" smooth="yes"/>
			<point x="100" y="753"/>
			<point x="80" y="751"/>
			<point x="80" y="751" type="curve"/>
			<point x="83" y="688"/>
			<point x="84" y="645"/>
			<point x="84" y="526" type="curve" smooth="yes"/>
			<point x="84" y="286" type="line" smooth="yes"/>
			<point x="84" y="160"/>
			<point x="79" y="0"/>
		</contour>
	</outline>
</glyph>
<glyph name="l" format="2">
	<advance width="254"/>
	<unicode hex="006C"/>
	<outline>
		<contour>
			<point x="114" y="-19" type="curve"/>
			<point x="152" y="-13"/>
			<point x="184" y="-3"/>
			<point x="207" y="21" type="curve"/>
			<point x="171" y="68"/>
			<point x="158" y="124"/>
			<point x="158" y="249" type="curve" smooth="yes"/>
			<point x="158" y="800" type="line"/>
			<point x="158" y="800"/>
			<point x="138" y="801.999"/>
			<point x="114" y="801.999" type="curve" smooth="yes"/>
			<point x="84" y="801.999"/>
			<point x="68" y="800"/>
			<point x="68" y="800" type="curve"/>
			<point x="68" y="213" type="line" smooth="yes"/>
			<point x="68" y="89"/>
			<point x="80" y="26"/>
		</contour>
	</outline>
</glyph>
<glyph name="m" format="2">
	<advance width="911"/>
	<unicode hex="006D"/>
	<outline>
		<contour>
			<point x="771" y="-19" type="curve"/>
			<point x="807" y="-17"/>
			<point x="846" y="2"/>
			<point x="861" y="28" type="curve"/>
			<point x="861" y="28"/>
			<point x="835" y="69"/>
			<point x="835" y="149" type="curve" smooth="yes"/>
			<point x="835" y="329" type="line" smooth="yes"/>
			<point x="835" y="502"/>
			<point x="781" y="566"/>
			<point x="648" y="566" type="curve" smooth="yes"/>
			<point x="535" y="566"/>
			<point x="442" y="474"/>
			<point x="442" y="368" type="curve"/>
			<point x="498" y="276" type="line"/>
			<point x="498" y="432"/>
			<point x="559" y="477"/>
			<point x="642" y="477" type="curve" smooth="yes"/>
			<point x="708" y="477"/>
			<point x="745" y="454"/>
			<point x="745" y="339" type="curve" smooth="yes"/>
			<point x="745" y="132" type="line" smooth="yes"/>
			<point x="745" y="13"/>
			<point x="771" y="-19"/>
		</contour>
		<contour>
			<point x="121" y="-2" type="curve" smooth="yes"/>
			<point x="156" y="-2"/>
			<point x="180" y="0"/>
			<point x="180" y="0" type="curve"/>
			<point x="180" y="0"/>
			<point x="160" y="104"/>
			<point x="160" y="290" type="curve" smooth="yes"/>
			<point x="160" y="482" type="line"/>
			<point x="123" y="553" type="line"/>
			<point x="66" y="553" type="line"/>
			<point x="66" y="553"/>
			<point x="70" y="397"/>
			<point x="70" y="286" type="curve" smooth="yes"/>
			<point x="70" y="160"/>
			<point x="68" y="0"/>
			<point x="68" y="0" type="curve"/>
			<point x="68" y="0"/>
			<point x="90" y="-2"/>
		</contour>
		<contour>
			<point x="459" y="-2" type="curve" smooth="yes"/>
			<point x="494" y="-2"/>
			<point x="518" y="0"/>
			<point x="518" y="0" type="curve"/>
			<point x="518" y="0"/>
			<point x="498" y="90"/>
			<point x="498" y="276" type="curve" smooth="yes"/>
			<point x="498" y="474"/>
			<point x="445" y="566"/>
			<point x="305" y="566" type="curve" smooth="yes"/>
			<point x="203" y="566"/>
			<point x="104" y="477"/>
			<point x="104" y="390" type="curve"/>
			<point x="160" y="342" type="line"/>
			<point x="160" y="402"/>
			<point x="199" y="477"/>
			<point x="290" y="477" type="curve" smooth="yes"/>
			<point x="372" y="477"/>
			<point x="408" y="440"/>
			<point x="408" y="286" type="curve" smooth="yes"/>
			<point x="408" y="160"/>
			<point x="406" y="0"/>
			<point x="406" y="0" type="curve"/>
			<point x="406" y="0"/>
			<point x="428" y="-2"/>
		</contour>
	</outline>
</glyph>
<glyph name="n" format="2">
	<advance width="567"/>
	<unicode hex="006E"/>
	<outline>
		<contour>
			<point x="434" y="-19" type="curve"/>
			<point x="478" y="-15"/>
			<point x="514" y="7"/>
			<point x="524" y="28" type="curve"/>
			<point x="524" y="28"/>
			<point x="498" y="61"/>
			<point x="498" y="152" type="curve" smooth="yes"/>
			<point x="498" y="329" type="line" smooth="yes"/>
			<point x="498" y="502"/>
			<point x="460" y="566"/>
			<point x="333" y="566" type="curve" smooth="yes"/>
			<point x="215" y="566"/>
			<point x="114" y="461"/>
			<point x="114" y="461" type="curve"/>
			<point x="150" y="416" type="line"/>
			<point x="150" y="416"/>
			<point x="214" y="477"/>
			<point x="305" y="477" type="curve" smooth="yes"/>
			<point x="380" y="477"/>
			<point x="408" y="420"/>
			<point x="408" y="329" type="curve" smooth="yes"/>
			<point x="408" y="130" type="line" smooth="yes"/>
			<point x="408" y="86"/>
			<point x="414" y="9"/>
		</contour>
		<contour>
			<point x="123" y="-4" type="curve" smooth="yes"/>
			<point x="158" y="-4"/>
			<point x="177" y="0"/>
			<point x="177" y="0" type="curve"/>
			<point x="177" y="0"/>
			<point x="160" y="104"/>
			<point x="160" y="290" type="curve" smooth="yes"/>
			<point x="160" y="412"/>
			<point x="172" y="461"/>
			<point x="172" y="461" type="curve"/>
			<point x="123" y="550" type="line"/>
			<point x="66" y="550" type="line"/>
			<point x="66" y="550"/>
			<point x="70" y="397"/>
			<point x="70" y="286" type="curve" smooth="yes"/>
			<point x="70" y="160"/>
			<point x="68" y="0"/>
			<point x="68" y="0" type="curve"/>
			<point x="68" y="0"/>
			<point x="92" y="-4"/>
		</contour>
	</outline>
</glyph>
<glyph name="o" format="2">
	<advance width="578"/>
	<unicode hex="006F"/>
	<anchor x="289" y="587" name="Top"/>
	<outline>
		<contour>
			<point x="289" y="-16" type="curve" smooth="yes"/>
			<point x="442" y="-16"/>
			<point x="538" y="85"/>
			<point x="538" y="275" type="curve" smooth="yes"/>
			<point x="538" y="465"/>
			<point x="442" y="566"/>
			<point x="289" y="566" type="curve" smooth="yes"/>
			<point x="136" y="566"/>
			<point x="40" y="465"/>
			<point x="40" y="275" type="curve" smooth="yes"/>
			<point x="40" y="85"/>
			<point x="136" y="-16"/>
		</contour>
		<contour>
			<point x="289" y="64" type="curve" smooth="yes"/>
			<point x="211" y="64"/>
			<point x="139" y="125"/>
			<point x="139" y="275" type="curve" smooth="yes"/>
			<point x="139" y="425"/>
			<point x="211" y="486"/>
			<point x="289" y="486" type="curve" smooth="yes"/>
			<point x="367" y="486"/>
			<point x="439" y="425"/>
			<point x="439" y="275" type="curve" smooth="yes"/>
			<point x="439" y="125"/>
			<point x="366" y="64"/>
		</contour>
	</outline>
</glyph>
<glyph name="p" format="2">
	<advance width="587"/>
	<unicode hex="0070"/>
	<outline>
		<contour>
			<point x="303" y="-15" type="curve" smooth="yes"/>
			<point x="451" y="-15"/>
			<point x="546" y="104"/>
			<point x="546" y="275" type="curve" smooth="yes"/>
			<point x="546" y="484"/>
			<point x="438" y="566"/>
			<point x="317" y="566" type="curve" smooth="yes"/>
			<point x="168" y="566"/>
			<point x="118" y="425"/>
			<point x="118" y="425" type="curve"/>
			<point x="159" y="335" type="line"/>
			<point x="159" y="428"/>
			<point x="230" y="485"/>
			<point x="297" y="485" type="curve" smooth="yes"/>
			<point x="392" y="485"/>
			<point x="445" y="430"/>
			<point x="445" y="275" type="curve" smooth="yes"/>
			<point x="445" y="151"/>
			<point x="382" y="64"/>
			<point x="295" y="64" type="curve" smooth="yes"/>
			<point x="209" y="64"/>
			<point x="159" y="110"/>
			<point x="159" y="252" type="curve"/>
			<point x="105" y="152" type="line"/>
			<point x="105" y="69"/>
			<point x="191" y="-15"/>
		</contour>
		<contour>
			<point x="114" y="-203" type="curve" smooth="yes"/>
			<point x="144" y="-203"/>
			<point x="172" y="-200"/>
			<point x="172" y="-200" type="curve"/>
			<point x="172" y="-200"/>
			<point x="159" y="-144"/>
			<point x="159" y="80" type="curve" smooth="yes"/>
			<point x="159" y="471" type="line"/>
			<point x="170" y="471" type="line"/>
			<point x="118" y="553" type="line"/>
			<point x="67" y="553" type="line"/>
			<point x="67" y="553"/>
			<point x="69" y="523"/>
			<point x="69" y="265" type="curve" smooth="yes"/>
			<point x="69" y="161" type="line" smooth="yes"/>
			<point x="69" y="-109"/>
			<point x="64" y="-200"/>
			<point x="64" y="-200" type="curve"/>
			<point x="64" y="-200"/>
			<point x="84" y="-203"/>
		</contour>
	</outline>
</glyph>
<glyph name="x" format="2">
	<advance width="600"/>
	<unicode hex="0078"/>
	<outline>
		<contour>
			<point x="107" y="-3" type="curve" smooth="yes"/>
			<point x="147" y="-3"/>
			<point x="164" y="0"/>
			<point x="164" y="0" type="curve"/>
			<point x="335" y="289" type="line"/>
			<point x="222" y="289" type="line"/>
			<point x="132" y="129" type="line" smooth="yes"/>
			<point x="70" y="20"/>
			<point x="53" y="0"/>
			<point x="53" y="0" type="curve"/>
			<point x="53" y="0"/>
			<point x="72" y="-3"/>
		</contour>
		<contour>
			<point x="471" y="-3" type="curve" smooth="yes"/>
			<point x="504" y="-3"/>
			<point x="521" y="0"/>
			<point x="521" y="0" type="curve"/>
			<point x="523" y="0"/>
			<point x="504" y="23"/>
			<point x="443" y="132" type="curve" smooth="yes"/>
			<point x="381" y="243"/>
			<point x="354" y="289"/>
			<point x="354" y="289" type="curve"/>
			<point x="243" y="289" type="line"/>
			<point x="412" y="0" type="line"/>
			<point x="412" y="0"/>
			<point x="428" y="-3"/>
		</contour>
		<contour>
			<point x="222" y="289" type="curve"/>
			<point x="319" y="289" type="line"/>
			<point x="178" y="550" type="line"/>
			<point x="178" y="550"/>
			<point x="169" y="556"/>
			<point x="125" y="556" type="curve" smooth="yes"/>
			<point x="87" y="556"/>
			<point x="67" y="550"/>
			<point x="67" y="550" type="curve"/>
			<point x="67" y="550"/>
			<point x="81" y="530"/>
			<point x="146" y="420" type="curve" smooth="yes"/>
			<point x="211" y="310"/>
			<point x="222" y="289"/>
		</contour>
		<contour>
			<point x="258" y="289" type="line"/>
			<point x="354" y="289" type="line"/>
			<point x="354" y="289"/>
			<point x="366" y="312"/>
			<point x="431" y="420" type="curve" smooth="yes"/>
			<point x="496" y="528"/>
			<point x="510" y="556"/>
			<point x="510" y="550" type="curve"/>
			<point x="510" y="550"/>
			<point x="498" y="556"/>
			<point x="463" y="556" type="curve" smooth="yes"/>
			<point x="407" y="556"/>
			<point x="399" y="550"/>
			<point x="399" y="550" type="curve"/>
		</contour>
	</outline>
</glyph>
<glyph name="z" format="2">
	<advance width="497"/>
	<unicode hex="007A"/>
	<outline>
		<contour>
			<point x="451" y="-4" type="curve"/>
			<point x="459" y="20"/>
			<point x="459" y="79"/>
			<point x="453" y="98" type="curve"/>
			<point x="453" y="98"/>
			<point x="371" y="78"/>
			<point x="214" y="78" type="curve" smooth="yes"/>
			<point x="139" y="78" type="line"/>
			<point x="149" y="36" type="line"/>
			<point x="171" y="65" type="line"/>
			<point x="462" y="534" type="line"/>
			<point x="462" y="550" type="line"/>
			<point x="202" y="550" type="line" smooth="yes"/>
			<point x="142" y="550"/>
			<point x="47" y="554"/>
			<point x="47" y="554" type="curve"/>
			<point x="39" y="530"/>
			<point x="39" y="471"/>
			<point x="45" y="452" type="curve"/>
			<point x="45" y="452"/>
			<point x="135" y="472"/>
			<point x="241" y="472" type="curve" smooth="yes"/>
			<point x="366" y="472" type="line"/>
			<point x="354" y="528" type="line"/>
			<point x="317" y="487" type="line"/>
			<point x="35" y="18" type="line"/>
			<point x="35" y="0" type="line"/>
			<point x="266" y="0" type="line" smooth="yes"/>
			<point x="300" y="0"/>
			<point x="451" y="-4"/>
		</contour>
	</outline>
</glyph>
<glyph name="acute" format="2">
	<advance width="310"/>
	<unicode hex="00B4"/>
	<anchor x="135" y="586" name="_Top"/>
	<outline>
		<contour>
			<point x="53" y="614" type="curve"/>
			<point x="284" y="724" type="line"/>
			<point x="290" y="762"/>
			<point x="261" y="806"/>
			<point x="225" y="806" type="curve"/>
			<point x="28" y="650" type="line"/>
			<point x="29" y="639"/>
			<point x="44" y="617"/>
		</contour>
	</outline>
</glyph>
<glyph name="p.001" format="2">
	<advance width="570"/>
	<outline>
		<contour>
			<point x="60" y="-240" type="line"/>
			<point x="73" y="-231"/>
			<point x="80" y="-216"/>
			<point x="83" y="-196" type="curve" smooth="yes"/>
			<point x="86" y="-175"/>
			<point x="87" y="-137"/>
			<point x="87" y="-80" type="curve" smooth="yes"/>
			<point x="86" y="70" type="line"/>
			<point x="93" y="49"/>
			<point x="111" y="30"/>
			<point x="140" y="13" type="curve" smooth="yes"/>
			<point x="168" y="-5"/>
			<point x="204" y="-13"/>
			<point x="248" y="-13" type="curve" smooth="yes"/>
			<point x="315" y="-13"/>
			<point x="367" y="14"/>
			<point x="402" y="69" type="curve" smooth="yes"/>
			<point x="437" y="124"/>
			<point x="454" y="195"/>
			<point x="454" y="284" type="curve" smooth="yes"/>
			<point x="454" y="377"/>
			<point x="433" y="447"/>
			<point x="392" y="494" type="curve" smooth="yes"/>
			<point x="351" y="541"/>
			<point x="299" y="565"/>
			<point x="236" y="565" type="curve" smooth="yes"/>
			<point x="201" y="566"/>
			<point x="168" y="558"/>
			<point x="138" y="542" type="curve" smooth="yes"/>
			<point x="107" y="526"/>
			<point x="84" y="508"/>
			<point x="69" y="489" type="curve"/>
			<point x="57" y="551" type="line"/>
			<point x="-13" y="551" type="line"/>
			<point x="-4" y="506"/>
			<point x="0" y="304"/>
			<point x="0" y="-56" type="curve" smooth="yes"/>
			<point x="0" y="-110" type="line" smooth="yes"/>
			<point x="0" y="-118"/>
			<point x="0" y="-124"/>
			<point x="-1" y="-127" type="curve"/>
			<point x="-2" y="-142" type="line" smooth="yes"/>
			<point x="-3" y="-149"/>
			<point x="-3" y="-154"/>
			<point x="-4" y="-157" type="curve" smooth="yes"/>
			<point x="-7" y="-170" type="line" smooth="yes"/>
			<point x="-8" y="-175"/>
			<point x="-10" y="-179"/>
			<point x="-12" y="-183" type="curve" smooth="yes"/>
			<point x="-17" y="-195" type="line"/>
		</contour>
		<contour>
			<point x="224" y="69" type="curve" smooth="yes"/>
			<point x="189" y="69"/>
			<point x="157" y="86"/>
			<point x="129" y="121" type="curve" smooth="yes"/>
			<point x="100" y="156"/>
			<point x="86" y="209"/>
			<point x="86" y="280" type="curve" smooth="yes"/>
			<point x="86" y="341"/>
			<point x="99" y="390"/>
			<point x="125" y="427" type="curve" smooth="yes"/>
			<point x="150" y="464"/>
			<point x="182" y="483"/>
			<point x="221" y="483" type="curve" smooth="yes"/>
			<point x="263" y="483"/>
			<point x="296" y="466"/>
			<point x="320" y="432" type="curve" smooth="yes"/>
			<point x="344" y="398"/>
			<point x="356" y="348"/>
			<point x="356" y="282" type="curve" smooth="yes"/>
			<point x="356" y="140"/>
			<point x="312" y="69"/>
		</contour>
	</outline>
</glyph>
